<?xml version="1.0" standalone="no"?>
<svg xmlns="http://www.w3.org/2000/svg" width="24" height="24"><rect width="24" height="24" opacity="0"></rect><g><path d="M16.27 8.78Q16.49 8.54 16.49 8.24Q16.49 7.94 16.27 7.73Q16.06 7.49 15.74 7.49Q15.43 7.49 15.22 7.73L12 10.94L8.78 7.73Q8.57 7.49 8.26 7.49Q7.94 7.49 7.73 7.73Q7.51 7.94 7.51 8.24Q7.51 8.54 7.73 8.78L10.94 12L7.73 15.22Q7.51 15.43 7.51 15.74Q7.51 16.06 7.73 16.27Q7.92 16.49 8.27 16.49Q8.62 16.49 8.78 16.27L12 13.06L15.22 16.27Q15.41 16.49 15.76 16.49Q16.1 16.49 16.27 16.27Q16.49 16.06 16.49 15.74Q16.49 15.43 16.27 15.22L13.06 12L16.27 8.78Z" fill="#ffffff"></path></g></svg>