<?xml version="1.0" standalone="no"?>
<svg xmlns="http://www.w3.org/2000/svg" width="24" height="24">
  <rect width="24" height="24" opacity="0"></rect>
  <g mask="url(#hms_mask_0)">
    <path d="M12 1.01Q9 1.01 6.48 2.48Q3.96 3.96 2.48 6.48Q1.01 9 1.01 12Q1.01 15 2.48 17.52Q3.96 20.04 6.48 21.52Q9 22.99 12 22.99Q14.98 22.99 17.51 21.52Q20.04 20.04 21.52 17.51Q22.99 14.98 22.99 12Q22.99 9.02 21.52 6.49Q20.04 3.96 17.51 2.48Q14.98 1.01 12 1.01Z" fill="#000000"></path>
  </g>
  <defs>
    <mask id="hms_mask_0">
      <rect width="24" height="24" fill="#ffffff"></rect>
      <g>
        <!-- 新增 rx="1" ry="1" 实现轻微圆角，数值可根据需求调整 -->
        <rect x="7.5" y="7" width="3" height="10" rx="1" ry="1" fill="#000000"></rect>
        <rect x="13.5" y="7" width="3" height="10" rx="1" ry="1" fill="#000000"></rect>
      </g>
    </mask>
  </defs>
</svg>